<?xml version="1.0" standalone="no"?>
<!DOCTYPE svg PUBLIC "-//W3C//DTD SVG 1.1//EN"
"http://www.w3.org/Graphics/SVG/1.1/DTD/svg11.dtd">
<svg width="100%" height="100%"
xmlns="http://www.w3.org/2000/svg" version="1.1">
<rect width="300" height="150"
style="fill:rgb(255,255,255);stroke-width:1;stroke:rgb(0,0,0)"/>
<rect x = "0" y = "0" width="30" height="30"
style="fill:rgb(0,0,0);stroke-width:1;stroke:rgb(0,0,0)"/>
<rect x = "30" y = "0" width="30" height="30"
style="fill:rgb(255,255,255);stroke-width:1;stroke:rgb(0,0,0)"/>
<rect x = "60" y = "0" width="30" height="30"
style="fill:rgb(0,0,0);stroke-width:1;stroke:rgb(0,0,0)"/>
<rect x = "90" y = "0" width="30" height="30"
style="fill:rgb(255,255,255);stroke-width:1;stroke:rgb(0,0,0)"/>
<rect x = "120" y = "0" width="30" height="30"
style="fill:rgb(0,0,0);stroke-width:1;stroke:rgb(0,0,0)"/>
<rect x = "150" y = "0" width="30" height="30"
style="fill:rgb(255,255,255);stroke-width:1;stroke:rgb(0,0,0)"/>
<rect x = "180" y = "0" width="30" height="30"
style="fill:rgb(0,0,0);stroke-width:1;stroke:rgb(0,0,0)"/>
<rect x = "210" y = "0" width="30" height="30"
style="fill:rgb(255,255,255);stroke-width:1;stroke:rgb(0,0,0)"/>
<rect x = "240" y = "0" width="30" height="30"
style="fill:rgb(0,0,0);stroke-width:1;stroke:rgb(0,0,0)"/>
<rect x = "270" y = "0" width="30" height="30"
style="fill:rgb(255,255,255);stroke-width:1;stroke:rgb(0,0,0)"/>
<rect x = "0" y = "30" width="30" height="30"
style="fill:rgb(255,255,255);stroke-width:1;stroke:rgb(0,0,0)"/>
<rect x = "30" y = "30" width="30" height="30"
style="fill:rgb(0,0,0);stroke-width:1;stroke:rgb(0,0,0)"/>
<rect x = "60" y = "30" width="30" height="30"
style="fill:rgb(255,255,255);stroke-width:1;stroke:rgb(0,0,0)"/>
<rect x = "90" y = "30" width="30" height="30"
style="fill:rgb(0,0,0);stroke-width:1;stroke:rgb(0,0,0)"/>
<rect x = "120" y = "30" width="30" height="30"
style="fill:rgb(255,255,255);stroke-width:1;stroke:rgb(0,0,0)"/>
<rect x = "150" y = "30" width="30" height="30"
style="fill:rgb(0,0,0);stroke-width:1;stroke:rgb(0,0,0)"/>
<rect x = "180" y = "30" width="30" height="30"
style="fill:rgb(255,255,255);stroke-width:1;stroke:rgb(0,0,0)"/>
<rect x = "210" y = "30" width="30" height="30"
style="fill:rgb(0,0,0);stroke-width:1;stroke:rgb(0,0,0)"/>
<rect x = "240" y = "30" width="30" height="30"
style="fill:rgb(255,255,255);stroke-width:1;stroke:rgb(0,0,0)"/>
<rect x = "270" y = "30" width="30" height="30"
style="fill:rgb(0,0,0);stroke-width:1;stroke:rgb(0,0,0)"/>
<rect x = "0" y = "60" width="30" height="30"
style="fill:rgb(0,0,0);stroke-width:1;stroke:rgb(0,0,0)"/>
<rect x = "30" y = "60" width="30" height="30"
style="fill:rgb(255,255,255);stroke-width:1;stroke:rgb(0,0,0)"/>
<rect x = "60" y = "60" width="30" height="30"
style="fill:rgb(0,0,0);stroke-width:1;stroke:rgb(0,0,0)"/>
<rect x = "90" y = "60" width="30" height="30"
style="fill:rgb(255,255,255);stroke-width:1;stroke:rgb(0,0,0)"/>
<rect x = "120" y = "60" width="30" height="30"
style="fill:rgb(0,0,0);stroke-width:1;stroke:rgb(0,0,0)"/>
<rect x = "150" y = "60" width="30" height="30"
style="fill:rgb(255,255,255);stroke-width:1;stroke:rgb(0,0,0)"/>
<rect x = "180" y = "60" width="30" height="30"
style="fill:rgb(0,0,0);stroke-width:1;stroke:rgb(0,0,0)"/>
<rect x = "210" y = "60" width="30" height="30"
style="fill:rgb(255,255,255);stroke-width:1;stroke:rgb(0,0,0)"/>
<rect x = "240" y = "60" width="30" height="30"
style="fill:rgb(0,0,0);stroke-width:1;stroke:rgb(0,0,0)"/>
<rect x = "270" y = "60" width="30" height="30"
style="fill:rgb(255,255,255);stroke-width:1;stroke:rgb(0,0,0)"/>
<rect x = "0" y = "90" width="30" height="30"
style="fill:rgb(255,255,255);stroke-width:1;stroke:rgb(0,0,0)"/>
<rect x = "30" y = "90" width="30" height="30"
style="fill:rgb(0,0,0);stroke-width:1;stroke:rgb(0,0,0)"/>
<rect x = "60" y = "90" width="30" height="30"
style="fill:rgb(255,255,255);stroke-width:1;stroke:rgb(0,0,0)"/>
<rect x = "90" y = "90" width="30" height="30"
style="fill:rgb(0,0,0);stroke-width:1;stroke:rgb(0,0,0)"/>
<rect x = "120" y = "90" width="30" height="30"
style="fill:rgb(255,255,255);stroke-width:1;stroke:rgb(0,0,0)"/>
<rect x = "150" y = "90" width="30" height="30"
style="fill:rgb(0,0,0);stroke-width:1;stroke:rgb(0,0,0)"/>
<rect x = "180" y = "90" width="30" height="30"
style="fill:rgb(255,255,255);stroke-width:1;stroke:rgb(0,0,0)"/>
<rect x = "210" y = "90" width="30" height="30"
style="fill:rgb(0,0,0);stroke-width:1;stroke:rgb(0,0,0)"/>
<rect x = "240" y = "90" width="30" height="30"
style="fill:rgb(255,255,255);stroke-width:1;stroke:rgb(0,0,0)"/>
<rect x = "270" y = "90" width="30" height="30"
style="fill:rgb(0,0,0);stroke-width:1;stroke:rgb(0,0,0)"/>
<rect x = "0" y = "120" width="30" height="30"
style="fill:rgb(0,0,0);stroke-width:1;stroke:rgb(0,0,0)"/>
<rect x = "30" y = "120" width="30" height="30"
style="fill:rgb(255,255,255);stroke-width:1;stroke:rgb(0,0,0)"/>
<rect x = "60" y = "120" width="30" height="30"
style="fill:rgb(0,0,0);stroke-width:1;stroke:rgb(0,0,0)"/>
<rect x = "90" y = "120" width="30" height="30"
style="fill:rgb(255,255,255);stroke-width:1;stroke:rgb(0,0,0)"/>
<rect x = "120" y = "120" width="30" height="30"
style="fill:rgb(0,0,0);stroke-width:1;stroke:rgb(0,0,0)"/>
<rect x = "150" y = "120" width="30" height="30"
style="fill:rgb(255,255,255);stroke-width:1;stroke:rgb(0,0,0)"/>
<rect x = "180" y = "120" width="30" height="30"
style="fill:rgb(0,0,0);stroke-width:1;stroke:rgb(0,0,0)"/>
<rect x = "210" y = "120" width="30" height="30"
style="fill:rgb(255,255,255);stroke-width:1;stroke:rgb(0,0,0)"/>
<rect x = "240" y = "120" width="30" height="30"
style="fill:rgb(0,0,0);stroke-width:1;stroke:rgb(0,0,0)"/>
<rect x = "270" y = "120" width="30" height="30"
style="fill:rgb(255,255,255);stroke-width:1;stroke:rgb(0,0,0)"/>
</svg>